<?xml version="1.0" standalone="no"?><!DOCTYPE svg PUBLIC "-//W3C//DTD SVG 1.1//EN" "http://www.w3.org/Graphics/SVG/1.1/DTD/svg11.dtd"><svg t="1491300924283" class="icon" style="" viewBox="0 0 1024 1024" version="1.1" xmlns="http://www.w3.org/2000/svg" p-id="2355" xmlns:xlink="http://www.w3.org/1999/xlink" width="200" height="200"><defs><style type="text/css"></style></defs><path d="M511.344561 0.000874C312.92561 0.43792 152.092627 161.270903 152.529673 359.689854c0 26.659815 3.059323 52.882584 8.740923 77.794215 35.837784 160.832983 179.625967 281.020673 351.385103 281.020673 171.759136-0.437046 315.110273-121.061783 350.511012-281.894766 5.6816-24.91163 8.303877-51.134399 8.303876-77.794214-0.437046-198.418951-161.707075-359.251934-360.126026-358.814888" fill="#34495E" p-id="2356"></path><path d="M805.476619 858.796556c101.831753-145.973414 53.31963-338.710765-108.824491-430.490456-66.431015-37.585969-141.602952-52.445538-214.152613-46.763938-104.891076 7.866831-204.100551 58.564184-264.41292 144.662275-101.831753 145.973414-53.31963 338.710765 108.824491 430.490456 62.497599 35.400738 132.862029 50.697353 201.041229 47.63803 109.698583-4.807508 215.026705-55.941907 277.524304-145.536367z" fill="#24B0D3" p-id="2357"></path><path d="M633.717483 601.376374s56.815999-15.733661 58.127137-17.918892c1.311138-2.185231-1.311138-31.467323 2.185231-46.763938 6.118646-28.845046 51.134399-30.156184 52.882584-13.985476 36.711876 20.978215 48.512122 126.743383 30.156184 182.248244-28.845046 20.104123-56.815999-46.763938-56.815999-46.763938-20.978215-13.111384-46.763938-17.0448-71.238522-11.3632-37.585969-5.6816-32.341415-43.704615-15.296615-45.4528z" fill="#A8C438" p-id="2358"></path><path d="M440.980131 482.062776s-16.607754 48.512122-30.156184 92.216737c-13.548431 43.704615-70.36443 73.423753-87.40923 83.912861-17.0448 10.052061-31.467323-16.170707-53.31963-47.63803-21.852307-31.030277-17.0448-93.964922 28.845046-106.639261 46.326892-12.674338 91.342645-67.742153 142.039998-21.852307zM262.228256 932.657355s5.244554-72.112615 48.949169-92.653784c43.704615-20.541169 125.869291 15.733661 153.840244 0.874093 27.970954-14.859569 74.734891-25.348677 49.823261 31.467322-24.91163 56.815999-51.571446 72.549661-51.134399 100.520615 0.874092 28.408-63.371692 51.134399-63.371692 51.134399S283.206471 970.243324 262.228256 932.657355z" fill="#A8C438" p-id="2359"></path><path d="M510.907515 479.003453l190.552121-48.075076s-72.112615-43.704615-124.995199-43.704615l-65.556922 91.779691z" fill="" p-id="2360"></path><path d="M510.907515 142.914965c-74.297845 0-135.04726 60.312368-135.04726 135.04726s87.846276 155.151383 135.04726 201.041228c47.200984-45.889846 135.04726-126.743383 135.04726-201.478275S585.642406 142.914965 510.907515 142.914965z" fill="#F2C411" p-id="2361"></path><path d="M510.907515 270.095394m-63.371692 0a63.371692 63.371692 0 1 0 126.743383 0 63.371692 63.371692 0 1 0-126.743383 0Z" fill="#34495E" p-id="2362"></path><path d="M408.20167 267.910163h-0.437046c-3.059323-0.437046-5.244554-3.059323-5.244554-6.555692 0-0.874092 8.303877-66.868061 79.542399-83.912861 3.059323-0.874092 6.118646 1.311138 6.992738 4.370462 0.874092 3.059323-1.311138 6.118646-4.370461 6.992738-63.808738 15.296615-70.801476 73.423753-70.801476 74.297845 0 2.622277-2.622277 4.807508-5.6816 4.807508z" fill="#FFFFFF" p-id="2363"></path></svg>