<?xml version="1.0" standalone="no"?><!DOCTYPE svg PUBLIC "-//W3C//DTD SVG 1.1//EN" "http://www.w3.org/Graphics/SVG/1.1/DTD/svg11.dtd"><svg t="1491301039483" class="icon" style="" viewBox="0 0 1024 1024" version="1.1" xmlns="http://www.w3.org/2000/svg" p-id="3404" xmlns:xlink="http://www.w3.org/1999/xlink" width="200" height="200"><defs><style type="text/css"></style></defs><path d="M8.087485 516.35469C5.599126 233.303899 229.5514 2.508639 507.625474 0.02028 785.699548-2.468078 1013.384359 224.594644 1015.872718 507.645435s-221.463915 513.846051-499.537989 516.334409C238.260655 1026.468203 10.575843 798.783391 8.087485 516.35469" fill="#316CB2" p-id="3405"></path><path d="M8.087485 516.35469C5.599126 233.303899 229.5514 2.508639 507.625474 0.02028 785.699548-2.468078 1013.384359 224.594644 1015.872718 507.645435s-221.463915 513.846051-499.537989 516.334409C238.260655 1026.468203 10.575843 798.783391 8.087485 516.35469" fill="#316CB2" p-id="3406"></path><path d="M851.018961 747.77204c0 14.308062-148.057337 25.505676-330.951694 25.505675-182.894357 0-330.951694-11.819703-330.951694-25.505675 0-14.308062 148.057337-25.505676 330.951694-25.505676 182.894357 0 330.951694 11.197614 330.951694 25.505676" fill="#384849" p-id="3407"></path><path d="M593.473846 290.536147c-21.773138-10.575524-108.865689-4.354628-184.760626 32.348662l57.232247 332.817962 286.783329-69.051951-159.25495-296.114673z" fill="#ACC0C6" p-id="3408"></path><path d="M270.609317 368.297353l16.174331 330.329604 178.53973-42.924186-57.232248-332.817962c-66.563593 3.110448-126.284199 25.505676-137.481813 45.412544" fill="#8A9A9E" p-id="3409"></path><path d="M279.318572 534.39529l5.598807 117.574943 173.563013-41.680006-19.906869-114.464496z" fill="#384849" p-id="3410"></path><path d="M673.72341 439.215573l-235.149887 56.610158 19.906869 114.464496 271.853177-65.319413z" fill="#45565A" p-id="3411"></path><path d="M286.783648 696.138599L462.212929 626.464558l4.354628 32.348662-177.91764 46.034634z" fill="#384849" p-id="3412"></path><path d="M859.106126 576.697386c0.62209 1.866269 0 4.354628-1.244179 6.220896-1.244179 1.866269-3.110448 3.110448-4.976717 3.732538l-659.415029 159.254951c-4.354628 1.244179-8.709255-1.866269-9.953435-6.220897l-1.866269-7.465076c-0.62209-1.866269 0-4.354628 1.24418-6.220896 1.244179-1.866269 3.110448-3.110448 4.976717-3.732538L847.908513 563.011414c4.354628-1.244179 8.709255 1.866269 9.953434 6.220896l1.244179 7.465076z" fill="#AFBFC6" p-id="3413"></path></svg>