<?xml version="1.0" standalone="no"?><!DOCTYPE svg PUBLIC "-//W3C//DTD SVG 1.1//EN" "http://www.w3.org/Graphics/SVG/1.1/DTD/svg11.dtd"><svg t="1491301014884" class="icon" style="" viewBox="0 0 1024 1024" version="1.1" xmlns="http://www.w3.org/2000/svg" p-id="3272" xmlns:xlink="http://www.w3.org/1999/xlink" width="200" height="200"><defs><style type="text/css"></style></defs><path d="M1015.851339 507.434836a511.937438 503.850941 89.488 1 0-1007.661648 9.00479 511.937438 503.850941 89.488 1 0 1007.661648-9.00479Z" fill="#304D5C" p-id="3273"></path><path d="M633.085203 999.741481c0 29.856639-248.805327 29.856639-248.805327 0l90.813944-286.126127h85.215825l72.775558 286.126127z" fill="#FFFFFF" p-id="3274"></path><path d="M620.022923 1014.047787c0-0.622013 0-1.244027-0.622013-2.488053-0.622013 0-0.622013 0-1.244027 0.622013l1.86604 1.86604zM297.198011 975.482961c1.244027 0.622013 1.86604 0.622013 3.110066 1.244027 0.622013-4.354093 1.86604-9.3302 3.73208-13.684293-1.86604 4.354093-4.354093 8.086173-6.842146 12.440266zM747.535654 964.908735zM57.722883 677.538582c-7.46416 0-14.92832 0.622013-21.770466 1.866039 24.258519 70.909518 62.823345 134.354877 113.206424 187.226009 15.550333-19.904426 25.502546-44.784959 25.502546-72.153545 0-64.689385-52.249119-116.938504-116.938504-116.938503z" fill="#FFFFFF" p-id="3275"></path><path d="M374.949676 913.903643c-30.478653 0-56.603212 18.038386-68.421465 44.162945 3.73208-9.952213 6.220133-20.52644 6.220133-31.722679 0-49.761065-40.430866-89.569918-89.569918-89.569918-28.612613 0-54.115159 13.06228-70.287505 34.210733 41.674892 42.918919 90.813945 78.995691 144.929103 105.12025 2.488053-3.73208 4.976107-8.086173 6.842147-11.818253-1.86604 4.354093-3.110067 8.708186-3.73208 13.684293 44.784959 21.148453 93.301998 35.454759 144.30709 42.918919 3.73208-9.3302 6.220133-19.282413 6.220133-29.856639-0.622013-42.918919-34.832746-77.129652-76.507638-77.129651zM961.508235 744.094007c-9.3302-4.354093-19.282413-6.220133-29.856639-6.220134-40.430866 0-73.397572 32.966706-73.397572 73.397572 0 5.59812 0.622013 11.19624 1.86604 16.172346-16.172346-17.416373-39.186839-27.990599-64.689385-27.990599-49.761065 0-89.569918 40.430866-89.569918 89.569918 0 19.282413 6.220133 36.698786 16.172347 51.627105 10.574226 5.59812 19.282413 14.306306 25.502546 24.25852 91.435958-49.761065 166.699569-126.890717 213.972581-220.814728z" fill="#FFFFFF" p-id="3276"></path><path d="M721.411094 940.028202c-9.952213-5.59812-21.148453-8.708186-33.588719-8.708186-38.564826 0-69.665492 31.100666-69.665492 69.665491 0 3.73208 0.622013 7.46416 1.244027 10.574227 44.784959-9.952213 87.703878-26.124559 127.51273-47.273013-9.952213-6.220133-18.6604-14.306306-25.502546-24.258519zM618.156883 1012.181747c-12.440266-14.92832-31.722679-24.880533-52.871132-24.880533-26.124559 0-49.139052 14.306306-60.957305 36.076773h11.818253c35.454759 0 69.043478-3.73208 102.010184-11.19624z" fill="#FFFFFF" p-id="3277"></path><path d="M747.535654 964.908735c-6.220133-9.952213-14.92832-18.6604-25.502546-24.25852 6.220133 9.3302 14.92832 17.416373 25.502546 24.25852z" fill="#FFFFFF" p-id="3278"></path><path d="M442.127114 706.151194l16.172346 44.162946h106.986291l17.416373-44.784959z" fill="#261B07" p-id="3279"></path><path d="M378.681756 499.642772s-37.320799 14.92832-54.737172 78.373679c-17.416373 64.067372-6.220133 199.666275-6.220134 199.666275l110.096358-87.081865-49.139052-190.958089zM642.415403 499.642772s37.320799 14.92832 54.737172 78.373679c17.416373 64.067372 6.220133 199.666275 6.220133 199.666275l-110.096357-87.081865 49.139052-190.958089z" fill="#E05B49" p-id="3280"></path><path d="M642.415403 499.642772l21.148453 247.561301-69.665492-55.981198zM377.437729 499.642772L356.289276 747.204073l69.665492-55.981198z" fill="#261B07" p-id="3281"></path><path d="M511.792606 113.994515v610.817079H447.725234c-7.46416 0-14.92832-4.354093-18.038386-11.818253-29.234626-67.177438-149.283196-377.562084 82.105758-598.998826z" fill="#E0E0E0" p-id="3282"></path><path d="M511.792606 113.994515v610.817079h64.067372c7.46416 0 14.92832-4.354093 18.038386-11.818253 28.612613-67.177438 149.283196-377.562084-82.105758-598.998826z" fill="#FFFFFF" p-id="3283"></path><path d="M528.586965 584.858597c-52.871132 0-100.766158 9.952213-134.354876 26.124559l11.818253 32.966706c32.344693-8.708186 75.263612-11.818253 122.536623-11.818253 33.588719 0 65.311398 1.86604 92.679985 5.59812l9.952213-38.564826C601.362524 589.834704 566.529778 584.858597 528.586965 584.858597z" fill="#304D5C" p-id="3284"></path><path d="M511.792606 496.532706c0-0.622013 0-0.622013 0 0 0-0.622013 0-0.622013 0 0-16.79436 24.880533-25.502546 49.139052-23.014493 78.373678l21.148453 202.776342h3.73208l21.148453-202.776342c2.488053-29.234626-6.220133-53.493145-23.014493-78.373678z" fill="#C95140" p-id="3285"></path><path d="M509.304553 341.029376m-64.067372 0a64.067372 64.067372 0 1 0 128.134743 0 64.067372 64.067372 0 1 0-128.134743 0Z" fill="#304D5C" p-id="3286"></path><path d="M509.304553 341.029376m-47.273013 0a47.273012 47.273012 0 1 0 94.546025 0 47.273012 47.273012 0 1 0-94.546025 0Z" fill="#737373" p-id="3287"></path><path d="M180.259507 376.484135l8.086173 10.574227 11.818253-4.354093-6.842146 10.574226 7.46416 9.952213-12.440267-3.73208-6.842146 10.574227-0.622014-12.440267-12.440266-3.73208 12.440266-4.354093zM798.540746 299.976497l1.244026 24.25852 23.014493 6.220133-22.392479 8.708186 0.622013 24.25852-14.92832-19.282413-22.392479 8.708186 13.06228-20.526439-14.92832-18.6604 23.014493 6.220133zM860.120064 612.227183l0.622014 24.25852 23.636506 6.220133-22.39248 8.708186 0.622014 24.25852-14.92832-19.282413-23.014493 8.708186 13.684293-19.904426-14.92832-19.282413 23.014493 6.220133z" fill="#F59426" p-id="3288"></path></svg>