<?xml version="1.0" standalone="no"?><!DOCTYPE svg PUBLIC "-//W3C//DTD SVG 1.1//EN" "http://www.w3.org/Graphics/SVG/1.1/DTD/svg11.dtd"><svg t="1491300993541" class="icon" style="" viewBox="0 0 1024 1024" version="1.1" xmlns="http://www.w3.org/2000/svg" p-id="2856" xmlns:xlink="http://www.w3.org/1999/xlink" width="200" height="200"><defs><style type="text/css"></style></defs><path d="M8.087485 512a512 503.912515 90 1 0 1007.82503 0 512 503.912515 90 1 0-1007.82503 0Z" fill="#1397C1" p-id="2857"></path><path d="M213.385176 810.614824a299.236938 9.953827 0 1 0 598.473876 0 299.236938 9.953827 0 1 0-598.473876 0Z" fill="" p-id="2858"></path><path d="M622.114216 797.550425H401.885784c19.907655-11.82017 13.686513-11.82017 18.041312-34.838396v-74.031592h177.924666c0 76.520049-5.599028 96.427704 24.262454 108.869988z" fill="#C7C7C7" p-id="2859"></path><path d="M416.194411 712.320778l199.076549 85.229647s-19.285541-18.041312-19.285541-37.326853v-62.833536c-52.257594-48.524909-179.791009 14.930741-179.791008 14.930742z" fill="#6E6E6E" p-id="2860"></path><path d="M828.656136 691.791009c0 14.308627-11.198056 25.506683-25.506683 25.506682H220.850547c-14.308627 0-25.506683-11.198056-25.506683-25.506682v-367.047388h632.690158v367.047388z" fill="#D4D4D4" p-id="2861"></path><path d="M828.656136 638.289186H195.965978v-367.047388c0-14.308627 11.198056-25.506683 25.506683-25.506683h582.298906c14.308627 0 25.506683 11.198056 25.506683 25.506683v367.047388z" fill="#3F3F3F" p-id="2862"></path><path d="M220.228433 280.573512H804.393682v323.499392H220.228433z" fill="#FFFFFF" p-id="2863"></path><path d="M805.63791 281.81774H219.606318v37.326853h1.244229v12.442284H804.393682v-12.442284h1.244228z" fill="#F2F2F2" p-id="2864"></path><path d="M512 677.482382m-18.663426 0a18.663426 18.663426 0 1 0 37.326852 0 18.663426 18.663426 0 1 0-37.326852 0Z" fill="#7B716B" p-id="2865"></path><path d="M641.399757 806.882139H375.756987c0-9.953827 8.087485-18.663426 18.663426-18.663427h228.938032c9.953827 0.622114 18.041312 8.709599 18.041312 18.663427zM245.113001 361.44836h241.380316v195.343864H245.113001z" fill="#BFBFBF" p-id="2866"></path><path d="M281.81774 397.530984v123.178615h167.970838V397.530984H281.81774z m8.087485 10.575942h151.795869V510.133657h-3.732686l-29.239368-36.082624-21.151883 26.750911-38.571082-46.658566-44.170109 55.368165 11.82017 0.622114h-27.373025V408.106926z" fill="#FFFEFF" p-id="2867"></path><path d="M312.301337 442.323208m-11.198056 0a11.198056 11.198056 0 1 0 22.396111 0 11.198056 11.198056 0 1 0-22.396111 0Z" fill="#FFFEFF" p-id="2868"></path><path d="M533.151883 363.936817h245.735116v7.46537H533.151883zM533.151883 399.397327h245.735116v7.46537H533.151883zM555.547995 434.857837h200.942892v7.465371H555.547995zM567.990279 470.318348h175.436209v7.46537H567.990279zM567.990279 505.778858h175.436209v7.46537H567.990279z" fill="#BFBFBF" p-id="2869"></path><path d="M607.183475 533.151883H704.855407v22.396112H607.183475z" fill="#71BFB0" p-id="2870"></path><path d="M244.490887 305.45808m-9.953827 0a9.953827 9.953827 0 1 0 19.907654 0 9.953827 9.953827 0 1 0-19.907654 0Z" fill="#71BFB0" p-id="2871"></path><path d="M286.794654 305.45808m-9.953828 0a9.953827 9.953827 0 1 0 19.907655 0 9.953827 9.953827 0 1 0-19.907655 0Z" fill="#EE4235" p-id="2872"></path><path d="M328.476306 305.45808m-9.953827 0a9.953827 9.953827 0 1 0 19.907655 0 9.953827 9.953827 0 1 0-19.907655 0Z" fill="#FE9F49" p-id="2873"></path></svg>