<?xml version="1.0" standalone="no"?><!DOCTYPE svg PUBLIC "-//W3C//DTD SVG 1.1//EN" "http://www.w3.org/Graphics/SVG/1.1/DTD/svg11.dtd"><svg t="1491301006956" class="icon" style="" viewBox="0 0 1024 1024" version="1.1" xmlns="http://www.w3.org/2000/svg" p-id="3132" xmlns:xlink="http://www.w3.org/1999/xlink" width="200" height="200"><defs><style type="text/css"></style></defs><path d="M8.087485 512a512 503.912515 90 1 0 1007.82503 0 512 503.912515 90 1 0-1007.82503 0Z" fill="#83BFD9" p-id="3133"></path><path d="M844.208991 294.260024c0-18.041312-14.308627-32.349939-32.349939-32.349939H215.251519c-18.041312 0-32.349939 14.308627-32.349939 32.349939v39.81531h660.685297v-39.81531z" fill="#F2F2F2" p-id="3134"></path><path d="M183.523694 334.697448v432.991495c0 18.041312 14.308627 32.349939 32.349939 32.349939h596.607533c18.041312 0 32.349939-14.308627 32.34994-32.349939V334.697448H183.523694z" fill="#4A5662" p-id="3135"></path><path d="M230.804374 306.080194m-11.198056 0a11.198056 11.198056 0 1 0 22.396112 0 11.198056 11.198056 0 1 0-22.396112 0Z" fill="#71BFB0" p-id="3136"></path><path d="M272.486027 306.080194m-11.198056 0a11.198056 11.198056 0 1 0 22.396112 0 11.198056 11.198056 0 1 0-22.396112 0Z" fill="#EE4235" p-id="3137"></path><path d="M325.365735 306.080194m-11.198056 0a11.198056 11.198056 0 1 0 22.396112 0 11.198056 11.198056 0 1 0-22.396112 0Z" fill="#FE9F49" p-id="3138"></path><path d="M722.274605 390.065614V373.26853l-35.46051 24.262454v5.599028h16.174969z" fill="#DFDFDF" p-id="3139"></path><path d="M702.989064 403.130012h-16.174969v5.599028l35.46051 24.262455V416.816525l-19.907655-13.686513z" fill="#FFFFFF" p-id="3140"></path><path d="M814.969623 397.530984L779.509113 373.26853v16.797084l18.663426 13.064398h16.797084z" fill="#DFDFDF" p-id="3141"></path><path d="M798.172539 403.130012h0.622115L779.509113 416.816525v16.17497l35.46051-24.262455v-5.599028z" fill="#FFFFFF" p-id="3142"></path><path d="M755.868773 362.692588l-24.884569 77.142163 15.552856-1.244229 22.396111-76.520048z" fill="#F5F5F5" p-id="3143"></path><path d="M283.684083 416.194411c0 4.3548-18.663426 8.087485-41.059539 8.087485s-41.059538-3.732685-41.059538-8.087485c0-4.3548 18.663426-8.087485 41.059538-8.087485s41.059538 3.110571 41.059539 8.087485z" fill="#EE4235" p-id="3144"></path><path d="M295.504253 456.009721c0 4.3548-13.686513 8.087485-30.483597 8.087484s-30.483597-3.732685-30.483596-8.087484c0-4.3548 13.686513-8.087485 30.483596-8.087485 16.797084-0.622114 30.483597 3.110571 30.483597 8.087485z" fill="#A7A8AA" p-id="3145"></path><path d="M261.910085 496.447145c0 4.3548-13.686513 8.087485-30.483597 8.087484s-30.483597-3.732685-30.483596-8.087484c0-4.3548 13.686513-8.087485 30.483596-8.087485 16.797084-0.622114 30.483597 3.732685 30.483597 8.087485zM292.393682 535.018226c0 4.3548-20.529769 8.087485-45.414338 8.087485s-45.414338-3.732685-45.414338-8.087485c0-4.3548 20.529769-8.087485 45.414338-8.087485 24.884569-0.622114 45.414338 3.110571 45.414338 8.087485z" fill="#EE4235" p-id="3146"></path><path d="M308.568651 574.833536c0 4.3548-18.663426 8.087485-41.059538 8.087485-22.396112 0-41.059538-3.732685-41.059538-8.087485 0-4.3548 18.663426-8.087485 41.059538-8.087485 22.396112 0 41.059538 3.732685 41.059538 8.087485z" fill="#A9AAAB" p-id="3147"></path><path d="M393.176185 574.833536c0 4.3548-12.442284 8.087485-27.99514 8.087485s-27.99514-3.732685-27.99514-8.087485c0-4.3548 12.442284-8.087485 27.99514-8.087485s27.99514 3.732685 27.99514 8.087485zM523.198056 574.833536c0 4.3548-20.529769 8.087485-45.414338 8.087485s-45.414338-3.732685-45.414338-8.087485c0-4.3548 20.529769-8.087485 45.414338-8.087485s45.414338 3.732685 45.414338 8.087485zM317.27825 613.404617c0 4.3548-20.529769 8.087485-45.414337 8.087485s-45.414338-3.732685-45.414338-8.087485c0-4.3548 20.529769-8.087485 45.414338-8.087485 24.884569-0.622114 45.414338 3.732685 45.414337 8.087485z" fill="#EAEAEB" p-id="3148"></path><path d="M387.577157 613.404617c0 4.3548-11.82017 8.087485-26.128797 8.087485s-26.128797-3.732685-26.128797-8.087485c0-4.3548 11.82017-8.087485 26.128797-8.087485s26.128797 3.732685 26.128797 8.087485z" fill="#A9AAAB" p-id="3149"></path><path d="M467.207776 613.404617c0 4.3548-11.82017 8.087485-26.128797 8.087485-14.308627 0-26.128797-3.732685-26.128797-8.087485 0-4.3548 11.82017-8.087485 26.128797-8.087485 14.308627-0.622114 26.128797 3.732685 26.128797 8.087485z" fill="#EAEAEB" p-id="3150"></path><path d="M317.27825 660.685298c0 4.3548-20.529769 8.087485-45.414337 8.087485s-45.414338-3.732685-45.414338-8.087485c0-4.3548 20.529769-8.087485 45.414338-8.087485s45.414338 3.732685 45.414337 8.087485z" fill="#9CBCC5" p-id="3151"></path><path d="M276.840826 711.076549c0 4.3548-14.308627 8.087485-31.727825 8.087485s-31.727825-3.732685-31.727825-8.087485c0-4.3548 14.308627-8.087485 31.727825-8.087485s31.727825 3.732685 31.727825 8.087485z" fill="#EE4235" p-id="3152"></path><path d="M387.577157 660.685298c0 4.3548-11.82017 8.087485-26.128797 8.087485s-26.128797-3.732685-26.128797-8.087485c0-4.3548 11.82017-8.087485 26.128797-8.087485s26.128797 3.732685 26.128797 8.087485z" fill="#EAEAEB" p-id="3153"></path><path d="M467.207776 660.685298c0 4.3548-11.82017 8.087485-26.128797 8.087485-14.308627 0-26.128797-3.732685-26.128797-8.087485 0-4.3548 11.82017-8.087485 26.128797-8.087485 14.308627 0 26.128797 3.732685 26.128797 8.087485z" fill="#EE4235" p-id="3154"></path><path d="M382.600243 456.009721c0 4.3548-13.686513 8.087485-30.483597 8.087484s-30.483597-3.732685-30.483596-8.087484c0-4.3548 13.686513-8.087485 30.483596-8.087485s30.483597 3.110571 30.483597 8.087485zM454.765492 456.009721c0 4.3548-9.331713 8.087485-21.151883 8.087484-11.198056 0-21.151883-3.732685-21.151884-8.087484 0-4.3548 9.331713-8.087485 21.151884-8.087485 11.82017-0.622114 21.151883 3.110571 21.151883 8.087485z" fill="#EAEAEB" p-id="3155"></path><path d="M531.907655 456.009721c0 4.3548-6.843256 8.087485-14.930741 8.087484-8.087485 0-14.930741-3.732685-14.930741-8.087484 0-4.3548 6.843256-8.087485 14.930741-8.087485 8.087485-0.622114 14.930741 3.110571 14.930741 8.087485z" fill="#A9AAAB" p-id="3156"></path></svg>